<svg width="108" height="46" viewBox="0 0 108 46" fill="none" xmlns="http://www.w3.org/2000/svg">
<path d="M0.840909 23.7273V21L22.7955 9.81818V14.1818L5.95455 22.2955L6.09091 22.0227V22.7045L5.95455 22.4318L22.7955 30.5455V34.9091L0.840909 23.7273ZM31.3224 9.81818H35.3452V37.9091C35.3452 39.5227 35.0668 40.9205 34.5099 42.1023C33.9645 43.2841 33.1349 44.1989 32.0213 44.8466C30.919 45.4943 29.527 45.8182 27.8452 45.8182C27.7088 45.8182 27.5724 45.8182 27.4361 45.8182C27.2997 45.8182 27.1634 45.8182 27.027 45.8182V42.0682C27.1634 42.0682 27.2884 42.0682 27.402 42.0682C27.5156 42.0682 27.6406 42.0682 27.777 42.0682C29.0043 42.0682 29.902 41.7045 30.4702 40.9773C31.0384 40.2614 31.3224 39.2386 31.3224 37.9091V9.81818ZM33.2997 5.45455C32.5156 5.45455 31.8395 5.1875 31.2713 4.65341C30.7145 4.11932 30.4361 3.47727 30.4361 2.72727C30.4361 1.97727 30.7145 1.33523 31.2713 0.801135C31.8395 0.267045 32.5156 0 33.2997 0C34.0838 0 34.7543 0.267045 35.3111 0.801135C35.8793 1.33523 36.1634 1.97727 36.1634 2.72727C36.1634 3.47727 35.8793 4.11932 35.3111 4.65341C34.7543 5.1875 34.0838 5.45455 33.2997 5.45455ZM42.7131 36V9.81818H46.5994V13.9091H46.9403C47.4858 12.5114 48.3665 11.4261 49.5824 10.6534C50.7983 9.86932 52.2585 9.47727 53.9631 9.47727C55.6903 9.47727 57.1278 9.86932 58.2756 10.6534C59.4347 11.4261 60.3381 12.5114 60.9858 13.9091H61.2585C61.929 12.5568 62.9347 11.483 64.2756 10.6875C65.6165 9.88068 67.2244 9.47727 69.0994 9.47727C71.4403 9.47727 73.3551 10.2102 74.8438 11.6761C76.3324 13.1307 77.0767 15.3977 77.0767 18.4773V36H73.054V18.4773C73.054 16.5455 72.5256 15.1648 71.4688 14.3352C70.4119 13.5057 69.1676 13.0909 67.7358 13.0909C65.8949 13.0909 64.4688 13.6477 63.4574 14.7614C62.446 15.8636 61.9403 17.2614 61.9403 18.9545V36H57.8494V18.0682C57.8494 16.5795 57.3665 15.3807 56.4006 14.4716C55.4347 13.5511 54.1903 13.0909 52.6676 13.0909C51.6222 13.0909 50.6449 13.3693 49.7358 13.9261C48.8381 14.483 48.1108 15.2557 47.554 16.2443C47.0085 17.2216 46.7358 18.3523 46.7358 19.6364V36H42.7131ZM107.545 23.7273L85.5909 34.9091V30.5455L102.432 22.4318L102.295 22.7045V22.0227L102.432 22.2955L85.5909 14.1818V9.81818L107.545 21V23.7273Z" fill="#0F8595"/>
</svg>
